<svg width="144" height="144" viewBox="0 0 144 144" fill="none" xmlns="http://www.w3.org/2000/svg"><path d="M128.82 54.72a5.781 5.781 0 0 0-6.12.3l-8.7 5.76-3 2.28c-2.58-1.2-5.82-2.4-9-3.6V48c0-3.3-2.7-6-6-6-6.3 0-11.04 1.8-13.92 5.28-1.374 1.44-2.34 3.24-3 5.28C67.02 49.92 52.74 48 36 48c-11.28 0-22.5 7.92-23.88 8.88L12 57l12 15-9.6 9.6C19.26 89.94 30 90 30 90h12v6c0 2.4 1.44 4.62 3.72 5.52.72.36 1.5.48 2.28.48 1.56 0 3.12-.6 4.26-1.74L62.46 90H66c4.44 0 8.76-.36 13.02-.96C81.24 97.14 87.3 102 96 102c3.3 0 6-2.7 6-6 0 0-.06-12.48-.12-12.72L111 81l11.7 7.98c.96.66 2.16 1.02 3.3 1.02.96 0 1.92-.24 2.82-.72C130.8 88.26 132 86.22 132 84V60c0-2.22-1.2-4.26-3.18-5.28Z" fill="#66BB6A"/><path opacity=".2" d="M111 63.06V72H24L12 57l.12-.12C13.5 55.92 24.72 48 36 48c16.74 0 31.02 1.92 43.08 4.56 8.88 1.98 16.56 4.44 22.92 6.9 3.18 1.2 6.42 2.4 9 3.6Z" fill="#000"/><path opacity=".3" d="M37.5 57c0 2.484-2.016 4.5-4.5 4.5a4.502 4.502 0 0 1-4.5-4.5c0-2.484 2.016-4.5 4.5-4.5s4.5 2.016 4.5 4.5Zm64.386 26.31c.03.234.102.45.102.69v12c0 3.318-2.682 6-6 6-8.7 0-14.754-4.848-16.992-12.966 8.358-1.176 16.14-3.33 22.89-5.724ZM62.484 90l-10.242 10.242a6.002 6.002 0 0 1-6.54 1.302A6.004 6.004 0 0 1 42 96v-6h20.484ZM132 60v24a6.003 6.003 0 0 1-3.168 5.292 6.005 6.005 0 0 1-6.162-.3L111 81V63.06l11.67-8.052a5.99 5.99 0 0 1 6.156-.3A5.996 5.996 0 0 1 132 60ZM96 42c-9 0-14.7 3.66-16.92 10.56 8.88 1.98 16.56 4.44 22.92 6.9V48c0-3.3-2.7-6-6-6Z" fill="#000"/></svg>