<svg width="144px" height="144px" viewBox="0 0 144 144" fill="none" xmlns="http://www.w3.org/2000/svg">
<path d="M128.82 54.72C126.906 53.64 124.5 53.76 122.7 55.02L114 60.78L111 63.06C108.42 61.86 105.18 60.66 102 59.46V48C102 44.7 99.3 42 96 42C89.7 42 84.96 43.8 82.08 47.28C80.706 48.72 79.74 50.52 79.08 52.56C67.02 49.92 52.74 48 36 48C24.72 48 13.5 55.92 12.12 56.88C12.06 56.94 12 57 12 57L24 72L14.4 81.6C19.26 89.94 30 90 30 90H42V96C42 98.4 43.44 100.62 45.72 101.52C46.44 101.88 47.22 102 48 102C49.56 102 51.12 101.4 52.26 100.26L62.46 90H66C70.44 90 74.76 89.64 79.02 89.04C81.24 97.14 87.3 102 96 102C99.3 102 102 99.3 102 96C102 96 101.94 83.52 101.88 83.28L111 81L122.7 88.98C123.66 89.64 124.86 90 126 90C126.96 90 127.92 89.76 128.82 89.28C130.8 88.26 132 86.22 132 84V60C132 57.78 130.8 55.74 128.82 54.72Z" fill="#66BB6A"/>
<path opacity="0.2" d="M111 63.06V72H24L12 57C12 57 12.06 56.94 12.12 56.88C13.5 55.92 24.72 48 36 48C52.74 48 67.02 49.92 79.08 52.56C87.96 54.54 95.64 57 102 59.46C105.18 60.66 108.42 61.86 111 63.06Z" fill="black"/>
<path opacity="0.3" d="M37.5 57C37.5 59.484 35.484 61.5 33 61.5C30.516 61.5 28.5 59.484 28.5 57C28.5 54.516 30.516 52.5 33 52.5C35.484 52.5 37.5 54.516 37.5 57ZM101.886 83.31C101.916 83.544 101.988 83.76 101.988 84V96C101.988 99.318 99.306 102 95.988 102C87.288 102 81.234 97.152 78.996 89.034C87.354 87.858 95.136 85.704 101.886 83.31ZM62.484 90L52.242 100.242C51.096 101.388 49.56 102 48 102C47.226 102 46.446 101.856 45.702 101.544C43.464 100.62 42 98.424 42 96V90H62.484ZM132 60V84C132 86.214 130.782 88.248 128.832 89.292C127.944 89.766 126.972 90 126 90C124.836 90 123.672 89.658 122.67 88.992L111 81V63.06L122.67 55.008C124.512 53.778 126.882 53.664 128.826 54.708C130.782 55.752 132 57.786 132 60ZM96 42C87 42 81.3 45.66 79.08 52.56C87.96 54.54 95.64 57 102 59.46V48C102 44.7 99.3 42 96 42Z" fill="black"/>
</svg>
