<svg xmlns="http://www.w3.org/2000/svg" viewBox="0 0 392.982 392.982" style="enable-background:new 0 0 392.982 392.982" xml:space="preserve" width="512" height="512"><path style="fill:#bc3987" d="M248.254 272.575c10.51 0 19.03 8.52 19.03 19.04 0 10.51-8.52 19.03-19.03 19.03-10.52 0-19.04-8.52-19.04-19.03 0-10.52 8.52-19.04 19.04-19.04zm-94.29-44.34c7.95 0 14.38 6.44 14.38 14.39 0 7.94-6.43 14.38-14.38 14.38-7.94 0-14.38-6.44-14.38-14.38 0-7.95 6.44-14.39 14.38-14.39z"/><path style="fill:#9ad14b" d="m366.004 91.024-4.58 6.24a83.12 83.12 0 0 1-27.49 24.01c-20.72 11.22-45.8 13.43-68.93 4.75-20.17 15.61-44.35 23.41-68.51 23.41-24.17 0-48.34-7.8-68.51-23.41a83.255 83.255 0 0 1-25.34 5.23 83.349 83.349 0 0 1-33.78-5.46 83.17 83.17 0 0 1-15.79-8.09 83.094 83.094 0 0 1-21.52-20.44l-4.57-6.24 51.41-24.62h236.19l7.91 3.79 43.51 20.83z"/><path style="fill:#a3e3e5" d="M363.394 148.215v196.37c0 22.59-18.31 40.9-40.9 40.9H80.314c-22.59 0-40.9-18.31-40.9-40.9v-196.37c0-12.12 5.27-23.01 13.65-30.5l.01-.01a83.17 83.17 0 0 0 15.79 8.09v218.79c0 6.31 5.13 11.44 11.45 11.44h242.18c6.32 0 11.44-5.13 11.44-11.44v-223.31c3.86-2.09 7.57-4.5 11.08-7.2 11.08 7.31 18.38 19.87 18.38 34.14z"/><path style="fill:#9ad14b" d="M343.984 25.405v23.09c0 9.89-8.77 17.91-19.58 17.91H78.394c-10.81 0-19.57-8.02-19.57-17.91v-23.09c0-9.89 8.76-17.9 19.57-17.9h246.01c10.81 0 19.58 8.01 19.58 17.9z"/><path style="fill:#90bc42" d="M130.82 48.495v-23.09c0-9.89 8.76-17.9 19.57-17.9H78.394c-10.81 0-19.57 8.01-19.57 17.9v23.09c0 9.89 8.76 17.91 19.57 17.91h71.996c-10.81-.001-19.57-8.02-19.57-17.91z"/><path style="fill:#d64394" d="M333.934 218.015v126.57c0 6.31-5.12 11.44-11.44 11.44H80.314c-6.32 0-11.45-5.13-11.45-11.44v-171.46h265.07v44.89zm-66.65 73.6c0-10.52-8.52-19.04-19.03-19.04-10.52 0-19.04 8.52-19.04 19.04 0 10.51 8.52 19.03 19.04 19.03 10.51 0 19.03-8.52 19.03-19.03zm-98.94-48.99c0-7.95-6.43-14.39-14.38-14.39-7.94 0-14.38 6.44-14.38 14.39 0 7.94 6.44 14.38 14.38 14.38 7.95 0 14.38-6.44 14.38-14.38z"/><path style="fill:#a3e3e5" d="M333.934 121.275v51.85H68.864v-47.33c9.5 3.65 19.63 5.55 29.89 5.55 9.78 0 19.67-1.73 29.23-5.32 20.17 15.61 44.34 23.41 68.51 23.41 24.16 0 48.34-7.8 68.51-23.41 23.13 8.68 48.21 6.47 68.93-4.75z"/><path style="fill:#bc3987" d="M102.036 354.411H81.491c-6.049 0-10.954-4.904-10.954-10.954V169.92h31.498v184.491z"/><path style="fill:#90bc42" d="m117.034 67.924-14.39 63.33a83.349 83.349 0 0 1-33.78-5.46 83.17 83.17 0 0 1-15.79-8.09 83.094 83.094 0 0 1-21.52-20.44l-4.57-6.24 51.41-24.62h35.43l3.21 1.52z"/><path style="fill:#fff" d="M321.025 54.426a7.499 7.499 0 0 1-7.5-7.5V28.927c0-4.143 3.357-7.5 7.5-7.5s7.5 3.357 7.5 7.5v17.999a7.5 7.5 0 0 1-7.5 7.5zm5.994 51a7.482 7.482 0 0 1-3.349-.794l-20.999-10.5a7.502 7.502 0 0 1 6.709-13.417l20.999 10.5a7.502 7.502 0 0 1-3.36 14.211z"/><path style="fill:#333" d="M153.965 264.505c12.066 0 21.884-9.817 21.884-21.884s-9.817-21.884-21.884-21.884-21.884 9.817-21.884 21.884 9.817 21.884 21.884 21.884zm0-28.768c3.796 0 6.884 3.088 6.884 6.884s-3.088 6.884-6.884 6.884-6.884-3.088-6.884-6.884 3.088-6.884 6.884-6.884zm67.753 55.873c0 14.63 11.902 26.532 26.532 26.532 14.631 0 26.533-11.902 26.533-26.532 0-14.631-11.902-26.533-26.533-26.533-14.63 0-26.532 11.902-26.532 26.533zm26.532-11.533c6.359 0 11.533 5.174 11.533 11.533s-5.174 11.532-11.533 11.532c-6.358 0-11.532-5.173-11.532-11.532s5.174-11.533 11.532-11.533z"/><path style="fill:#333" d="m367.477 101.699 4.574-6.245a7.505 7.505 0 0 0 1.224-6.259 7.505 7.505 0 0 0-4.035-4.938l-30.145-14.433c7.447-4.532 12.388-12.396 12.388-21.327v-23.09C351.482 11.397 339.335 0 324.404 0H78.397c-14.93 0-27.078 11.397-27.078 25.407v23.091c0 7.275 3.281 13.841 8.521 18.478L23.743 84.258a7.502 7.502 0 0 0-2.811 11.196l4.573 6.246a89.983 89.983 0 0 0 16.4 17.093c-6.416 8.384-9.993 18.713-9.993 29.42v196.37c0 26.688 21.712 48.4 48.4 48.4h242.18c26.688 0 48.4-21.712 48.4-48.4v-196.37a48.246 48.246 0 0 0-14.226-34.26 90.094 90.094 0 0 0 10.811-12.254zM66.319 25.407C66.319 19.669 71.737 15 78.397 15h246.007c6.66 0 12.078 4.669 12.078 10.407v23.091c0 5.739-5.418 10.408-12.078 10.408H78.397c-6.66 0-12.078-4.669-12.078-10.408V25.407zM80.1 73.906h232.783l41.715 19.973c-20.136 26.522-55.697 36.855-86.962 25.122a7.497 7.497 0 0 0-7.225 1.09c-37.637 29.114-90.205 29.114-127.84 0a7.497 7.497 0 0 0-7.225-1.09c-31.262 11.731-66.825 1.4-86.963-25.122L80.1 73.906zm-3.738 106.715h250.07v163.961a3.944 3.944 0 0 1-3.94 3.94H80.313a3.95 3.95 0 0 1-3.95-3.94V180.621zm250.071-15H76.362v-29.685c16.275 4.15 33.717 3.853 50.327-1.521 20.834 15.01 45.313 22.513 69.802 22.511 24.482-.002 48.973-7.505 69.802-22.511a90.095 90.095 0 0 0 27.766 4.374 91.532 91.532 0 0 0 32.374-5.945v32.777zm29.46-17.409v196.37c0 18.417-14.983 33.4-33.4 33.4H80.313c-18.417 0-33.4-14.983-33.4-33.4v-196.37a33.442 33.442 0 0 1 7.458-21.031 91.046 91.046 0 0 0 6.992 3.521v213.88c0 10.443 8.501 18.94 18.95 18.94h242.18c10.443 0 18.94-8.497 18.94-18.94v-219.04a90.251 90.251 0 0 0 3.382-2.157 33.288 33.288 0 0 1 11.078 24.827z"/><circle style="fill:#333" cx="302.256" cy="221.16" r="7.5"/><circle style="fill:#333" cx="224.41" cy="221.902" r="7.5"/><circle style="fill:#333" cx="118.95" cy="310.322" r="7.5"/><circle style="fill:#333" cx="288.549" cy="326.992" r="7.5"/><path style="fill:#fff" d="M308.629 334.912a7.499 7.499 0 0 1-7.5-7.5V192.419c0-4.143 3.357-7.5 7.5-7.5s7.5 3.357 7.5 7.5v134.993a7.5 7.5 0 0 1-7.5 7.5z"/><circle style="fill:#fff" cx="308.494" cy="167.395" r="7.5"/></svg>