<svg xmlns="http://www.w3.org/2000/svg" width="400" height="128"><style>text{fill:white; stroke:white;} line, path, circle, rect, polygon{stroke:white;stroke-width:2;stroke-opacity:1;fill-opacity:1;stroke-linecap:round;stroke-linejoin:miter;}text{font-family:Iosevka Fixed, monospace;font-size:14px;}rect.backdrop{stroke:none;fill:transparent;}.broken{stroke-dasharray:8;}.filled{fill:currentColor;}.bg_filled{fill:transparent;}.nofill{fill:transparent;}.end_marked_arrow{marker-end:url(#arrow);}.start_marked_arrow{marker-start:url(#arrow);}.end_marked_diamond{marker-end:url(#diamond);}.start_marked_diamond{marker-start:url(#diamond);}.end_marked_circle{marker-end:url(#circle);}.start_marked_circle{marker-start:url(#circle);}.end_marked_open_circle{marker-end:url(#open_circle);}.start_marked_open_circle{marker-start:url(#open_circle);}.end_marked_big_open_circle{marker-end:url(#big_open_circle);}.start_marked_big_open_circle{marker-start:url(#big_open_circle);}<!--separator--></style><defs><marker id="arrow" viewBox="-2 -2 8 8" refX="4" refY="2" markerWidth="7" markerHeight="7" orient="auto-start-reverse"><polygon points="0,0 0,4 4,2 0,0"></polygon></marker><marker id="diamond" viewBox="-2 -2 8 8" refX="4" refY="2" markerWidth="7" markerHeight="7" orient="auto-start-reverse"><polygon points="0,2 2,0 4,2 2,4 0,2"></polygon></marker><marker id="circle" viewBox="0 0 8 8" refX="4" refY="4" markerWidth="7" markerHeight="7" orient="auto-start-reverse"><circle cx="4" cy="4" r="2" class="filled"></circle></marker><marker id="open_circle" viewBox="0 0 8 8" refX="4" refY="4" markerWidth="7" markerHeight="7" orient="auto-start-reverse"><circle cx="4" cy="4" r="2" class="bg_filled"></circle></marker><marker id="big_open_circle" viewBox="0 0 8 8" refX="4" refY="4" markerWidth="7" markerHeight="7" orient="auto-start-reverse"><circle cx="4" cy="4" r="3" class="bg_filled"></circle></marker></defs><rect class="backdrop" x="0" y="0" width="400" height="128"></rect><line x1="80" y1="64" x2="96" y2="64" class="solid"></line><text x="114" y="60">|</text><text x="138" y="60">Y</text><text x="154" y="60">Y</text><text x="218" y="60">&gt;</text><text x="234" y="60">&gt;</text><line x1="248" y1="64" x2="264" y2="64" class="solid"></line><text x="378" y="60">&lt;</text><text x="338" y="76">&gt;</text><g><line x1="36" y1="16" x2="60" y2="16" class="solid"></line><line x1="36" y1="16" x2="36" y2="80" class="solid"></line><line x1="36" y1="32" x2="96" y2="32" class="solid"></line><line x1="60" y1="16" x2="60" y2="32" class="solid"></line><line x1="56" y1="32" x2="60" y2="40" class="solid"></line><line x1="60" y1="40" x2="60" y2="64" class="solid"></line><line x1="60" y1="48" x2="80" y2="48" class="solid"></line><line x1="96" y1="32" x2="112" y2="64" class="solid"></line><line x1="72" y1="48" x2="64" y2="64" class="solid"></line><path d="M 60,64 A 12,12 0,0,0 60,80" class="nofill"></path><line x1="60" y1="80" x2="96" y2="80" class="solid"></line><line x1="8" y1="64" x2="0" y2="80" class="solid"></line><line x1="8" y1="64" x2="16" y2="80" class="solid"></line><line x1="16" y1="80" x2="36" y2="80" class="solid"></line><line x1="0" y1="80" x2="8" y2="96" class="solid"></line><line x1="8" y1="96" x2="60" y2="96" class="solid"></line><line x1="60" y1="80" x2="60" y2="96" class="solid"></line><line x1="120" y1="64" x2="104" y2="96" class="solid"></line><line x1="112" y1="80" x2="156" y2="80" class="solid"></line><line x1="140" y1="64" x2="140" y2="80" class="solid"></line><line x1="96" y1="80" x2="104" y2="96" class="solid"></line></g><g><line x1="340" y1="16" x2="364" y2="16" class="solid"></line><line x1="340" y1="16" x2="340" y2="48" class="solid"></line><line x1="364" y1="16" x2="364" y2="48" class="solid"></line></g><g><line x1="128" y1="32" x2="168" y2="32" class="solid"></line><line x1="128" y1="32" x2="120" y2="48" class="solid"></line><line x1="168" y1="32" x2="184" y2="64" class="solid"></line><line x1="184" y1="64" x2="180" y2="72" class="solid"></line><line x1="180" y1="72" x2="180" y2="112" class="solid"></line><line x1="204" y1="80" x2="224" y2="80" class="solid"></line><line x1="204" y1="80" x2="204" y2="112" class="solid"></line><line x1="180" y1="112" x2="204" y2="112" class="solid"></line></g><g><line x1="176" y1="32" x2="264" y2="32" class="solid"></line><line x1="176" y1="32" x2="184" y2="48" class="solid"></line><line x1="184" y1="48" x2="216" y2="48" class="solid"></line><line x1="224" y1="32" x2="232" y2="48" class="solid"></line><line x1="232" y1="48" x2="248" y2="48" class="solid"></line><line x1="264" y1="32" x2="280" y2="64" class="solid"></line><line x1="204" y1="48" x2="204" y2="64" class="solid"></line><line x1="204" y1="64" x2="216" y2="64" class="solid"></line></g><g><line x1="296" y1="32" x2="328" y2="32" class="solid"></line><line x1="280" y1="48" x2="288" y2="48" class="solid"></line><line x1="296" y1="32" x2="288" y2="48" class="solid"></line><line x1="280" y1="48" x2="296" y2="80" class="solid"></line><line x1="288" y1="64" x2="272" y2="96" class="solid"></line><line x1="296" y1="80" x2="320" y2="80" class="solid"></line><line x1="320" y1="80" x2="328" y2="96" class="solid"></line><line x1="336" y1="80" x2="328" y2="96" class="solid"></line><line x1="304" y1="48" x2="336" y2="48" class="solid"></line><line x1="328" y1="32" x2="336" y2="48" class="solid"></line><line x1="304" y1="48" x2="312" y2="64" class="solid"></line><line x1="312" y1="64" x2="340" y2="64" class="solid"></line><path d="M 232,64 A 16,16 0,0,0 232,80" class="nofill"></path><line x1="232" y1="80" x2="264" y2="80" class="solid"></line><line x1="264" y1="80" x2="272" y2="96" class="solid"></line></g><g><line x1="376" y1="32" x2="392" y2="32" class="solid"></line><line x1="376" y1="32" x2="368" y2="48" class="solid"></line><line x1="392" y1="32" x2="384" y2="48" class="solid"></line></g><g><line x1="156" y1="64" x2="156" y2="72" class="solid"></line><line x1="156" y1="72" x2="168" y2="96" class="solid"></line><line x1="176" y1="80" x2="168" y2="96" class="solid"></line></g><g><line x1="344" y1="80" x2="376" y2="80" class="solid"></line><line x1="364" y1="64" x2="364" y2="80" class="solid"></line><line x1="376" y1="80" x2="384" y2="96" class="solid"></line><line x1="384" y1="64" x2="392" y2="80" class="solid"></line><line x1="392" y1="80" x2="384" y2="96" class="solid"></line></g></svg>
