<svg xmlns="http://www.w3.org/2000/svg" fill="none" viewBox="0 0 131.05 102">
  <defs><style>.cls-1{fill:none;stroke:#000;stroke-linecap:round;stroke-width:6px;}</style></defs><g><line class="cls-1" x1="39" y1="3" x2="63" y2="3"/><line class="cls-1" x1="39" y1="3" x2="39" y2="67"/><line class="cls-1" x1="39" y1="19" x2="62.85" y2="19"/><line class="cls-1" x1="63" y1="3" x2="63" y2="19"/><line class="cls-1" x1="59" y1="19" x2="63" y2="27"/><line class="cls-1" x1="63" y1="27" x2="63" y2="44.84"/><path class="cls-1" d="m63,58.93v8.07"/><line class="cls-1" x1="11" y1="51" x2="3" y2="67"/><line class="cls-1" x1="11" y1="51" x2="19" y2="67"/><line class="cls-1" x1="19" y1="67" x2="39" y2="67"/><line class="cls-1" x1="3" y1="67" x2="11" y2="83"/><line class="cls-1" x1="11" y1="83" x2="63" y2="83"/><line class="cls-1" x1="63" y1="67" x2="63" y2="83"/></g><g><line class="cls-1" x1="63.04" y1="45.06" x2="67.05" y2="51"/><line class="cls-1" x1="67.05" y1="51" x2="63.05" y2="59"/><line class="cls-1" x1="63.05" y1="59" x2="63.05" y2="99"/><line class="cls-1" x1="87.05" y1="67" x2="107.05" y2="67"/><line class="cls-1" x1="87.05" y1="67" x2="87.05" y2="99"/><line class="cls-1" x1="63.05" y1="99" x2="87.05" y2="99"/></g><g><line class="cls-1" x1="59.05" y1="19" x2="106.93" y2="19"/><line class="cls-1" x1="59.05" y1="19" x2="67.05" y2="35"/><line class="cls-1" x1="67.05" y1="35" x2="99.05" y2="35"/><polyline class="cls-1" points="107.05 19 122.84 50.71 107.05 67"/><line class="cls-1" x1="87.05" y1="35" x2="87.05" y2="51"/><line class="cls-1" x1="87.05" y1="51" x2="99.05" y2="51"/></g><style>
    @media (prefers-color-scheme:dark){:root{filter:invert(100%)}}
  </style>
</svg>

