<?xml version="1.0" encoding="iso-8859-1"?>
<!-- Generator: Adobe Illustrator 19.0.0, SVG Export Plug-In . SVG Version: 6.00 Build 0)  -->
<svg xmlns="http://www.w3.org/2000/svg" xmlns:xlink="http://www.w3.org/1999/xlink" version="1.1" id="Layer_1" x="0px" y="0px" viewBox="0 0 392.982 392.982" style="enable-background:new 0 0 392.982 392.982;" xml:space="preserve" width="512" height="512">
<g>
	<path style="fill:#BC3987;" d="M248.254,272.575c10.51,0,19.03,8.52,19.03,19.04c0,10.51-8.52,19.03-19.03,19.03   c-10.52,0-19.04-8.52-19.04-19.03C229.214,281.095,237.734,272.575,248.254,272.575z"/>
	<path style="fill:#BC3987;" d="M153.964,228.235c7.95,0,14.38,6.44,14.38,14.39c0,7.94-6.43,14.38-14.38,14.38   c-7.94,0-14.38-6.44-14.38-14.38C139.584,234.675,146.024,228.235,153.964,228.235z"/>
	<path style="fill:#9AD14B;" d="M366.004,91.024l-4.58,6.24c-4.74,6.47-10.28,12.1-16.41,16.81c-3.51,2.7-7.22,5.11-11.08,7.2   c-20.72,11.22-45.8,13.43-68.93,4.75c-20.17,15.61-44.35,23.41-68.51,23.41c-24.17,0-48.34-7.8-68.51-23.41   c-8.29,3.11-16.84,4.83-25.34,5.23c-1.3,0.06-2.59,0.09-3.89,0.09c-10.26,0-20.39-1.9-29.89-5.55c-5.51-2.12-10.81-4.82-15.79-8.09   c-8.17-5.35-15.49-12.21-21.52-20.44l-4.57-6.24l51.41-24.62h236.19l7.91,3.79L366.004,91.024z"/>
	<path style="fill:#A3E3E5;" d="M363.394,148.215v196.37c0,22.59-18.31,40.9-40.9,40.9H80.314c-22.59,0-40.9-18.31-40.9-40.9   v-196.37c0-12.12,5.27-23.01,13.65-30.5l0.01-0.01c4.98,3.27,10.28,5.97,15.79,8.09v47.33v171.46c0,6.31,5.13,11.44,11.45,11.44   h242.18c6.32,0,11.44-5.13,11.44-11.44v-126.57v-44.89v-51.85c3.86-2.09,7.57-4.5,11.08-7.2   C356.094,121.385,363.394,133.945,363.394,148.215z"/>
	<path style="fill:#9AD14B;" d="M343.984,25.405v23.09c0,9.89-8.77,17.91-19.58,17.91h-1.91h-7.91H78.394   c-10.81,0-19.57-8.02-19.57-17.91v-23.09c0-9.89,8.76-17.9,19.57-17.9h246.01C335.214,7.505,343.984,15.515,343.984,25.405z"/>
	<path style="fill:#90BC42;" d="M130.82,48.495v-23.09c0-9.89,8.76-17.9,19.57-17.9H78.394c-10.81,0-19.57,8.01-19.57,17.9v23.09   c0,9.89,8.76,17.91,19.57,17.91h71.996C139.58,66.404,130.82,58.385,130.82,48.495z"/>
	<path style="fill:#D64394;" d="M333.934,218.015v126.57c0,6.31-5.12,11.44-11.44,11.44H80.314c-6.32,0-11.45-5.13-11.45-11.44   v-171.46h132.54h132.53V218.015z M267.284,291.615c0-10.52-8.52-19.04-19.03-19.04c-10.52,0-19.04,8.52-19.04,19.04   c0,10.51,8.52,19.03,19.04,19.03C258.764,310.645,267.284,302.125,267.284,291.615z M168.344,242.625   c0-7.95-6.43-14.39-14.38-14.39c-7.94,0-14.38,6.44-14.38,14.39c0,7.94,6.44,14.38,14.38,14.38   C161.914,257.005,168.344,250.565,168.344,242.625z"/>
	<path style="fill:#A3E3E5;" d="M333.934,121.275v51.85h-132.53H68.864v-47.33c9.5,3.65,19.63,5.55,29.89,5.55   c9.78,0,19.67-1.73,29.23-5.32c20.17,15.61,44.34,23.41,68.51,23.41c24.16,0,48.34-7.8,68.51-23.41   C288.134,134.705,313.214,132.495,333.934,121.275z"/>
	<path style="fill:#BC3987;" d="M102.036,354.411H81.491c-6.049,0-10.954-4.904-10.954-10.954V169.92h31.498V354.411z"/>
	<path style="fill:#90BC42;" d="M117.034,67.924l-14.39,63.33c-1.3,0.06-2.59,0.09-3.89,0.09c-10.26,0-20.39-1.9-29.89-5.55   c-5.51-2.12-10.81-4.82-15.79-8.09c-8.17-5.35-15.49-12.21-21.52-20.44l-4.57-6.24l51.41-24.62h35.43L117.034,67.924z"/>
	<path style="fill:#FFFFFF;" d="M321.025,54.426c-4.143,0-7.5-3.357-7.5-7.5V28.927c0-4.143,3.357-7.5,7.5-7.5s7.5,3.357,7.5,7.5   v17.999C328.525,51.068,325.168,54.426,321.025,54.426z"/>
	<path style="fill:#FFFFFF;" d="M327.019,105.426c-1.127,0-2.271-0.256-3.349-0.794l-20.999-10.5   c-3.704-1.853-5.206-6.357-3.354-10.063c1.852-3.705,6.356-5.205,10.063-3.354l20.999,10.5c3.704,1.853,5.206,6.357,3.354,10.063   C332.419,103.906,329.77,105.426,327.019,105.426z"/>
	<g>
		<path style="fill:#333333;" d="M153.965,264.505c12.066,0,21.884-9.817,21.884-21.884s-9.817-21.884-21.884-21.884    s-21.884,9.817-21.884,21.884S141.898,264.505,153.965,264.505z M153.965,235.737c3.796,0,6.884,3.088,6.884,6.884    s-3.088,6.884-6.884,6.884s-6.884-3.088-6.884-6.884S150.169,235.737,153.965,235.737z"/>
		<path style="fill:#333333;" d="M221.718,291.61c0,14.63,11.902,26.532,26.532,26.532c14.631,0,26.533-11.902,26.533-26.532    c0-14.631-11.902-26.533-26.533-26.533C233.62,265.077,221.718,276.979,221.718,291.61z M248.25,280.077    c6.359,0,11.533,5.174,11.533,11.533s-5.174,11.532-11.533,11.532c-6.358,0-11.532-5.173-11.532-11.532    S241.892,280.077,248.25,280.077z"/>
		<path style="fill:#333333;" d="M367.477,101.699l4.574-6.245c1.318-1.8,1.767-4.094,1.224-6.259    c-0.544-2.164-2.023-3.974-4.035-4.938l-30.145-14.433c7.447-4.532,12.388-12.396,12.388-21.327V25.407    C351.482,11.397,339.335,0,324.404,0H78.397C63.467,0,51.319,11.397,51.319,25.407v23.091c0,7.275,3.281,13.841,8.521,18.478    L23.743,84.258c-2.012,0.964-3.491,2.773-4.035,4.938c-0.543,2.164-0.095,4.458,1.224,6.258l4.573,6.246    c4.765,6.506,10.302,12.213,16.4,17.093c-6.416,8.384-9.993,18.713-9.993,29.42v196.37c0,26.688,21.712,48.4,48.4,48.4h242.18    c26.688,0,48.4-21.712,48.4-48.4v-196.37c0-13.028-5.199-25.275-14.226-34.26C360.587,110.248,364.211,106.158,367.477,101.699z     M66.319,25.407C66.319,19.669,71.737,15,78.397,15h246.007c6.66,0,12.078,4.669,12.078,10.407v23.091    c0,5.739-5.418,10.408-12.078,10.408H78.397c-6.66,0-12.078-4.669-12.078-10.408V25.407z M80.1,73.906h232.783l41.715,19.973    c-20.136,26.522-55.697,36.855-86.962,25.122c-2.436-0.915-5.168-0.501-7.225,1.09c-37.637,29.114-90.205,29.114-127.84,0    c-2.057-1.591-4.789-2.005-7.225-1.09c-31.262,11.731-66.825,1.4-86.963-25.122L80.1,73.906z M76.362,180.621h250.07v163.961    c0,2.173-1.768,3.94-3.94,3.94H80.313c-2.178,0-3.95-1.768-3.95-3.94V180.621z M326.433,165.621H76.362v-29.685    c16.275,4.15,33.717,3.853,50.327-1.521c20.834,15.01,45.313,22.513,69.802,22.511c24.482-0.002,48.973-7.505,69.802-22.511    c9.115,2.949,18.478,4.375,27.766,4.374c11.094-0.001,22.072-2.045,32.374-5.945V165.621z M355.893,148.212v196.37    c0,18.417-14.983,33.4-33.4,33.4H80.313c-18.417,0-33.4-14.983-33.4-33.4v-196.37c0-7.699,2.672-15.123,7.458-21.031    c2.283,1.274,4.615,2.451,6.992,3.521v213.88c0,10.443,8.501,18.94,18.95,18.94h242.18c10.443,0,18.94-8.497,18.94-18.94v-219.04    c1.142-0.692,2.269-1.413,3.382-2.157C351.818,129.668,355.893,138.633,355.893,148.212z"/>
		<circle style="fill:#333333;" cx="302.256" cy="221.16" r="7.5"/>
		<circle style="fill:#333333;" cx="224.41" cy="221.902" r="7.5"/>
		<circle style="fill:#333333;" cx="118.95" cy="310.322" r="7.5"/>
		<circle style="fill:#333333;" cx="288.549" cy="326.992" r="7.5"/>
	</g>
	<path style="fill:#FFFFFF;" d="M308.629,334.912c-4.143,0-7.5-3.357-7.5-7.5V192.419c0-4.143,3.357-7.5,7.5-7.5s7.5,3.357,7.5,7.5   v134.993C316.129,331.555,312.771,334.912,308.629,334.912z"/>
	<circle style="fill:#FFFFFF;" cx="308.494" cy="167.395" r="7.5"/>
</g>















</svg>
